<?xml version="1.0" encoding="UTF-8"?>
<svg width="1440px" height="739px" viewBox="0 0 1440 739" version="1.1" xmlns="http://www.w3.org/2000/svg" xmlns:xlink="http://www.w3.org/1999/xlink">
    <!-- Generator: Sketch 54.1 (76490) - https://sketchapp.com -->
    <title>0.2 HOME Copy 3</title>
    <desc>Created with Sketch.</desc>
    <g id="0.2-HOME-Copy-3" stroke="none" stroke-width="1" fill="none" fill-rule="evenodd">
        <rect fill="#FFFFFF" x="0" y="0" width="1440" height="739"></rect>
        <g id="Group-6" transform="translate(-69.000000, -206.000000)">
            <circle id="Oval-Copy-6" stroke="#68B04E" stroke-width="4" cx="556.5" cy="437.5" r="437.5"></circle>
            <circle id="Oval-Copy-11" stroke="#68B04E" stroke-width="4" cx="1460.5" cy="437.5" r="437.5"></circle>
            <circle id="Oval-Copy-9" stroke="#68B04E" stroke-width="4" cx="97" cy="775" r="97"></circle>
            <ellipse id="Oval-Copy-18" stroke="#68B04E" stroke-width="4" fill="#FFFFFF" cx="728.5" cy="775" rx="97.5" ry="97"></ellipse>
            <ellipse id="Oval-Copy-12" stroke="#68B04E" stroke-width="4" fill="#68B04E" cx="1220.5" cy="748" rx="97.5" ry="97"></ellipse>
            <circle id="Oval-Copy-13" stroke="#68B04E" stroke-width="4" fill="#FFFFFF" cx="360" cy="750" r="97"></circle>
            <circle id="Oval-Copy-15" fill="#68B04E" cx="332" cy="858" r="18"></circle>
            <circle id="Oval-Copy-14" fill="#68B04E" cx="403" cy="869" r="32"></circle>
            <circle id="Oval-Copy-17" fill="#68B04E" cx="1188" cy="868" r="18"></circle>
            <ellipse id="Oval-Copy-20" stroke="#68B04E" stroke-width="4" fill="#FFFFFF" cx="1095.5" cy="668" rx="40.5" ry="41"></ellipse>
            <rect id="Rectangle" stroke="#68B04E" stroke-width="3" fill="#FFFFFF" x="552.5" y="875.5" width="8" height="68"></rect>
            <rect id="Rectangle-Copy-3" stroke="#68B04E" stroke-width="3" fill="#FFFFFF" x="994.5" y="871.5" width="8" height="72"></rect>
            <rect id="Rectangle-Copy-6" stroke="#68B04E" stroke-width="3" fill="#FFFFFF" x="725.5" y="871.5" width="8" height="72"></rect>
            <rect id="Rectangle-Copy-4" stroke="#68B04E" stroke-width="3" fill="#FFFFFF" x="1217.5" y="846.5" width="8" height="97"></rect>
            <rect id="Rectangle-Copy-7" stroke="#68B04E" stroke-width="3" fill="#FFFFFF" x="1091.5" y="708.5" width="8" height="236"></rect>
            <rect id="Rectangle-Copy-5" stroke="#68B04E" stroke-width="3" fill="#FFFFFF" x="357.5" y="848.5" width="8" height="95"></rect>
            <circle id="Oval-Copy-10" stroke="#68B04E" stroke-width="4" fill="#FFFFFF" cx="997" cy="775" r="97"></circle>
        </g>
    </g>
</svg>