<?xml version="1.0" encoding="UTF-8"?>
<svg width="33px" height="33px" viewBox="0 0 33 33" version="1.1" xmlns="http://www.w3.org/2000/svg" xmlns:xlink="http://www.w3.org/1999/xlink">
    <!-- Generator: Sketch 56.3 (81716) - https://sketch.com -->
    <title>Group 3</title>
    <desc>Created with Sketch.</desc>
    <defs>
        <polygon id="path-1" points="0 0 33 0 33 33 0 33"></polygon>
    </defs>
    <g id="Welcome" stroke="none" stroke-width="1" fill="none" fill-rule="evenodd">
        <g id="0.2-HOME-Copy" transform="translate(-1141.000000, -4052.000000)">
            <g id="Group-2" transform="translate(0.000000, 4031.000000)">
                <g id="Group-3" transform="translate(1141.000000, 21.000000)">
                    <mask id="mask-2" fill="white">
                        <use xlink:href="#path-1"></use>
                    </mask>
                    <g id="Clip-2"></g>
                    <path d="M25.36875,6.5319375 C24.761666,6.5319375 24.2694375,7.02416602 24.2694375,7.63125 C24.2694375,8.23839844 24.761666,8.7305625 25.36875,8.7305625 C25.9758984,8.7305625 26.468127,8.23839844 26.468127,7.63125 C26.468127,7.02416602 25.9758984,6.5319375 25.36875,6.5319375 L25.36875,6.5319375 Z M16.5,21.65625 C13.657875,21.65625 11.34375,19.342125 11.34375,16.5 C11.34375,13.6558125 13.657875,11.34375 16.5,11.34375 C19.342125,11.34375 21.65625,13.6558125 21.65625,16.5 C21.65625,19.342125 19.342125,21.65625 16.5,21.65625 L16.5,21.65625 Z M16.5,8.25 C11.9439375,8.25 8.25,11.9439375 8.25,16.5 C8.25,21.0560625 11.9439375,24.75 16.5,24.75 C21.0560625,24.75 24.75,21.0560625 24.75,16.5 C24.75,11.9439375 21.0560625,8.25 16.5,8.25 L16.5,8.25 Z M29.90625,22.6875 C29.90625,26.668125 26.668125,29.90625 22.6875,29.90625 L10.3125,29.90625 C6.33193945,29.90625 3.09375,26.668125 3.09375,22.6875 L3.09375,10.3125 C3.09375,6.331875 6.33193945,3.09375 10.3125,3.09375 L22.6875,3.09375 C26.668125,3.09375 29.90625,6.331875 29.90625,10.3125 L29.90625,22.6875 Z M22.6875,0 L10.3125,0 C4.6179375,0 0,4.6179375 0,10.3125 L0,22.6875 C0,28.3820625 4.6179375,33 10.3125,33 L22.6875,33 C28.3820625,33 33,28.3820625 33,22.6875 L33,10.3125 C33,4.6179375 28.3820625,0 22.6875,0 L22.6875,0 Z" id="Fill-1" fill="#68B04E" mask="url(#mask-2)"></path>
                </g>
            </g>
        </g>
    </g>
</svg>