<?xml version="1.0" encoding="utf-8"?>
<!-- Generator: Adobe Illustrator 23.1.1, SVG Export Plug-In . SVG Version: 6.00 Build 0)  -->
<svg version="1.1" xmlns="http://www.w3.org/2000/svg" xmlns:xlink="http://www.w3.org/1999/xlink" x="0px" y="0px"
	 viewBox="0 0 330.71 187.59" style="enable-background:new 0 0 330.71 187.59;" xml:space="preserve">
<style type="text/css">
	.Arched_x0020_Green{fill:url(#SVGID_1_);stroke:#FFFFFF;stroke-width:0.25;stroke-miterlimit:1;}
	.st0{fill:#F9F9E8;}
	.st1{fill:#F9F9F2;}
	.st2{fill:#91B355;}
	.st3{fill-rule:evenodd;clip-rule:evenodd;fill:#4D8B3F;}
	.st4{fill-rule:evenodd;clip-rule:evenodd;fill:#628343;}
	.st5{fill:#628343;}
	.st6{fill:#91B355;stroke:#91B355;stroke-width:0.25;}
	.st7{fill:none;stroke:#91B355;stroke-width:0.25;}
	.st8{fill:url(#SVGID_2_);}
</style>
<linearGradient id="SVGID_1_" gradientUnits="userSpaceOnUse" x1="-47.2444" y1="323.001" x2="-46.5373" y2="322.2939">
	<stop  offset="0" style="stop-color:#64AA53"/>
	<stop  offset="0.9831" style="stop-color:#283922"/>
</linearGradient>
<g id="Layer_3">
</g>
<g id="Layer_2">
</g>
<g id="Layer_1">
	<g>
		<g>
			<path class="st0" d="M325.71,92.7c0-32.72-26.53-59.24-59.25-59.24c-9.05,0-17.63,2.04-25.3,5.67
				C233.47,28.73,221.13,22,207.21,22c-11.05,0-21.11,4.25-28.64,11.21C169,13.55,148.83,0,125.5,0c-23.11,0-43.1,13.29-52.78,32.64
				C69.71,32.23,66.63,32,63.5,32C28.43,32,0,59.2,0,92.74c0,27.22,18.71,50.25,44.5,57.98v0l0.03,0.01
				c2.13,0.64,4.3,1.16,6.52,1.58l0.11,0.03l0.07,0c3.97,0.74,8.08,1.14,12.28,1.14c1.6,0,3.17-0.07,4.74-0.19l0.15,0.01
				c0,0,122.89-0.84,183.86-1.26c3.62-0.02,6.95-0.13,9.98-0.28c1.4,0.1,2.81,0.17,4.23,0.17c2.45,0,4.86-0.15,7.23-0.44
				c3.4-0.41,6.7-1.13,9.9-2.09c0.06-0.01,0.1-0.02,0.1-0.02l0.01-0.01C308.01,142.01,325.71,119.42,325.71,92.7z"/>
			<path class="st1" d="M330.71,101.89c0-32.72-26.53-59.25-59.25-59.25c-9.05,0-17.63,2.04-25.3,5.67
				c-7.69-10.39-20.03-17.13-33.95-17.13c-11.05,0-21.11,4.25-28.64,11.21C174,22.73,153.84,9.18,130.5,9.18
				c-23.11,0-43.1,13.29-52.78,32.64c-3.01-0.42-6.08-0.64-9.22-0.64C33.43,41.18,5,68.38,5,101.93c0,27.22,18.71,50.26,44.5,57.98
				v0l0.03,0.01c2.13,0.64,4.3,1.16,6.52,1.58l0.11,0.03l0.07,0c3.97,0.74,8.08,1.14,12.28,1.14c1.6,0,3.17-0.07,4.74-0.19
				l0.15,0.01c0,0,122.89-0.84,183.86-1.26c3.62-0.02,6.95-0.13,9.98-0.28c1.4,0.1,2.81,0.17,4.23,0.17c2.45,0,4.86-0.15,7.23-0.44
				c3.4-0.41,6.7-1.13,9.9-2.09c0.06-0.01,0.1-0.02,0.1-0.02l0.01-0.01C313.01,151.2,330.71,128.61,330.71,101.89z"/>
			<g>
				<path class="st2" d="M217.95,86.12c0-2.01,0-4.03,0-6.04c0-0.68-3.62-0.31-4.38-0.31c-38.29,0.03-76.59,0-114.88,0
					c-3.42,0-6.84,0-10.27,0l0-0.01c-5.52,0-11.05,0-16.57,0c-1.7,0-3.48-0.17-5.17,0c-5.4,0-4.52,5.05-4.54,8.77
					c0.01,0,0.02-0.01,0.04-0.01c0,8.83,0,17.67,0,26.5c0,4.89,0,9.77,0,14.66c0,5.11,3.22,6.64,8.37,4.46
					c0.65,0.58,0.81-3.16,0.81-3.45c0-2.74,0-5.49,0-8.23c0-4.42,0-8.84,0-13.26c0.23,0.08,0.55,0.63,0.84,0.88
					c0-0.17,7.3,0.31,8.47-0.28c2.53-1.28,2.6-9.07-0.71-9.76c-2.35-0.49-4.89-0.18-7.28-0.18c-1.7,0-0.89-1.88-0.89-3.24
					c0-1.82-0.4-4.14,0.09-5.93c0.79-2.89,7.23-1.6,9.32-1.58c3.19,0.02,6.36-0.04,9.54,0.17c-6.87,7.97-6.68,18.79-4.58,28.5
					c1.23,5.67,4.52,18.24,12.24,18.24c6.92,0,10.04-10.36,10.98-15.43c1.87-10.15,1.09-22.14-2.9-31.8c1.11,0,4.24-0.39,5.14,0.6
					c1.11,1.22,1.53,2.82,1.53,4.14c0,4.2-0.33,8.55-0.33,12.75c0,5.23-0.25,10.69-0.25,15.92c0,3.43,0.42,6.32,0.42,9.75
					c0,4.41,7.47,4.68,7.81,0.35c0.61-2.29,0.79-5.46,0.79-7.84c0-2.75-0.33-6.13-0.43-9.06c-0.02-0.49,1.27-0.24,1.16-0.69
					c1.02,4.43,0.78,4.16,2.27,8.19c1.21,3.28,2.08,12.92,6.28,12.92c2.84,0,5.44-0.26,6.46-1.32c1.96-2.04-0.35-6.24-1.19-8.55
					c-1.62-4.5-3.2-9.43-5.78-13.35c9.66-2.89,11.68-15.61,7.78-24.14c1.1,0.01,3.51,0.5,4.6,0.51c0,1.64,0,3.29,0,4.93
					c0,2.74,0,5.48,0.01,8.23c0.01,5.75-0.15,11.52-0.15,17.27c0,3.63-1.49,10.96,0.47,14.19c2.06,3.38,10.41,2.35,13.62,2.45
					c2.07,0.06,3.55-0.09,5.61-0.21c0.28-0.27-0.11-2.81-0.11-3.18c0-0.49-0.28-5.44-0.44-5.44c-1.31-0.01-10.31-0.41-10.31-0.92
					c0-4.68,0-9.37,0-14.05c0-5.5,9.78,0.53,11.65-3.46c1.02-2.19,1.08-6-0.65-7.87c-2.44-2.65-7.7,0.99-10.48-0.81
					c-1.86-1.21-1.19-10.19,0.69-10.88c1.87-0.68,4.24-0.7,6.57-0.58c1.75,0.08,3.48,0.24,4.96,0.25
					c-1.44,4.42-0.68,10.54,1.99,14.37c3.09,4.42,9.33,4.96,12.77,8.96c2.94,3.41,2.64,9.65-0.6,12.81
					c-2.79,2.34-5.7,2.36-9.04,2.56c-2.03,0.13-3.45,0.01-3.42,1.75c0.02,1.44,0.02,3.03,0.04,4.47c0.01,1.01-0.32,1.93,0.21,2.14
					c0.66,0.27,1.83,0.14,2.77,0.13c4.46-0.04,9.53-0.88,13.46-3.22c8.67-5.16,10.14-20.96,2.95-27.81
					c-2.84-2.71-9.9-5.92-9.73-10.54c0.24-6.26,10.31-4.44,14.08-4.38c5.48,0.1,3.88,4.59,3.88,8.83c0,11.06,0.35,21.81,1.15,32.84
					c0.11,1.49,0.41,3.08,1.73,3.68c1.56,0.71,3.25,0.94,4.82,0.68c1.62-0.26,3.21-0.73,3.68-2.95c1.18-5.55-0.46-13.44-0.62-19.2
					c-0.17-6-0.43-12-0.43-18.01c0-5.82,4.75-5.31,9.66-5.15c0.76-0.03,3.86,0.47,4.38-0.02C218.43,90.37,217.95,86.78,217.95,86.12
					z M102.18,117.01c-0.24,1.32-0.55,2.63-0.99,3.89c-0.42,1.23-1.26,3.53-2.82,3.53c-1.18,0-2.13-1.69-2.57-2.63
					c-2.29-4.93-2.19-10.73-1.66-16.06c0.17-1.73,0.47-3.45,0.88-5.13c0.34-1.4,0.81-2.75,1.73-3.88c1.14-1.4,2.78-0.6,3.61,0.62
					c0.98,1.44,1.23,3.25,1.54,4.94c0.47,2.59,0.78,5.21,0.82,7.85C102.75,112.45,102.59,114.74,102.18,117.01z M131.39,99.97
					c-0.17,0.71-0.58,1.46-1.13,1.94c-0.6,0.53-1.36,0.8-2.07,1.13c-0.31,0.14-0.65,0.23-0.97,0.35c-0.61,0.22-1.24,0.48-1.86,0.64
					c-0.18,0.05-0.37,0.03-0.54,0.09c-0.32,0.11-0.65,0.19-0.97,0.28c-0.22,0.06-0.43,0.17-0.65,0.19
					c-0.35,0.03-0.73,0.16-1.08,0.13c-0.28-0.02-0.27-0.48-0.28-0.71c-0.02-0.3-0.02-0.6-0.03-0.89c-0.01-0.32-0.02-0.67-0.06-0.99
					c-0.05-0.4-0.1-0.79-0.18-1.18c-0.07-0.35-0.15-0.71-0.18-1.07c-0.03-0.33-0.02-0.66-0.06-0.98c-0.13-0.91-0.12-1.8-0.08-2.71
					c0.02-0.3,0.04-0.58,0.08-0.88c0.04-0.28,0.09-0.56,0.12-0.83c0.09-0.74,1.33-0.62,1.87-0.67l1.96,0.38c0,0,1.95,0.54,1.96,0.54
					c0.65,0.18,1.31,0.58,1.93,0.85c1.04,0.46,1.8,1.18,2.24,2.24C131.68,98.55,131.57,99.22,131.39,99.97z"/>
				<g>
					<polyline class="st3" points="216.62,88.87 216.62,88.86 216.62,88.87 216.62,88.87 					"/>
					<path class="st3" d="M216.62,86.11C216.62,86.11,216.61,86.1,216.62,86.11l0,1.5C216.73,86.99,216.9,86.41,216.62,86.11"/>
					<path class="st3" d="M216.62,88.86l0-1.25C216.53,88.04,216.47,88.49,216.62,88.86z"/>
					<path class="st4" d="M216.62,88.87c-2.28-0.6-0.58-3.37,0-2.76l-0.01-6.26c-10.03-0.05-20.56-0.03-28.67,0.13
						c-0.05,0.92,0.93,0.81,1.23,1.38c-1.75,1.04-3.01-0.19-2.45-1.53c-5.69,0.96-11.3-0.22-17.22,0.06
						c-1.62,0.07-3.94-0.47-5.48-0.06c-1.32,0.35-0.86,0.2-2.48,0.01c-3.96-0.49-8.2,1.05-12.09-0.01c0.11,1.56-0.97,0.99-1.53,1.84
						c0.88-1.73-1.84-2.31-2.45-0.77c0.05-1.74-6.96-0.86-8.37-0.94c-2.79-0.16-7.21-0.99-9.73,0.63c-0.32-1.01-2.15-0.96-4.14-0.91
						c-2.08,0.06-4.34,0.14-5.19,0.11c-2.26-0.07-4.51,0.13-6.76,0.08c-1.76-0.04-3.6,0.42-5.23,0.4c-1.04-0.01-3.24-0.33-4.99-0.43
						c-0.96-0.06-1.49-0.2-2.23,0.24c-0.49,0.29-1.26-0.8-2.06-0.07c-0.99,0.9-2.37,0.08-3.13,0.87c0-0.41,0.06-0.88-0.15-1.07
						c-1.67-0.07-3.27,0.31-4.91,0.31c-2.04,0-4.06-0.32-6.09-0.29c-0.63,0.01-1.72-0.06-2.94-0.09c-1.88-0.06-3.96,0.04-4.61,0.87
						l0.02,0.4l-0.49,0.33c0.15,0.34-2.23,0.55-1.69-0.61l-0.48-0.33l0.02-0.59c-1.14,0.09-3.12-0.43-3.99,0.61
						c0.26-1.49-3.41-0.08-3.88,0.18c-2.16,1.19-2.04,4.79-2.01,6.86c0.04,2.85,0.47,5.71,0.35,8.56c-0.06,1.41-1.01,5.72,0.78,6.48
						c-1.05,1.01-1.42,5.96-0.76,7.13c0.76,1.33-0.35,4.38-0.44,5.76c-0.15,2.29-0.38,5.44-0.03,7.66c0.53,3.31-0.71,7.2,0.78,10.31
						c0.88,1.83,5.52,1.92,7.33,1.67c3.86-0.53,2.19-4.66,2.36-7.31c0.25-3.96,0.11-7.95,0.11-11.91c0-1.27,0.43-2.88,0.15-4.12
						c-0.38-1.74-0.04-1.18,1.07-2.61c-0.02,0.38-0.02,0.74,0.15,0.92c0.97,0,1.94,0,2.91,0c0.44-0.27-0.53-0.76,0-1.07
						c1.02-0.35,0.23,1.1,0.92,1.07c1.22,0.26,0.2-0.39,0.92-0.61c1.57,1.82,3.38-1.38,3.72-2.64c0.39-1.48,0-3.46-0.36-4.91
						c-1-4.03-10.01,1.05-9.8-3.04c0.26-5.07-1.77-10.24,5-9.81c1.91,0.12,3.83,0.49,5.74,0.39c1.66-0.09,2.69-2.73,3.83-1.93
						c-4.36,1.5,3.17,1.86,3.08,1.73c0.29,0.43-0.83,2.02-1.09,2.56c-0.8,1.67-2.62,2.85-0.46,4.29c-0.91,0.24-0.79-0.54-1.53-0.46
						c-1.02,0.72-0.42,3.78-1.15,4.63c-0.95,1.1-1.11,2.61-1.16,4c-0.12,3.03,0.21,6.05,0.63,9.04c0.12,0.86,0.25,1.71,0.39,2.57
						c0.17,1.09,0.37,2.18,0.6,3.27c0.3,1.36,0.65,2.7,1.07,4.03c0.71,2.25,2.04,7.57,4.68,8.35c-0.66,0.86,1.21,2.3,1.73,2.72
						c1.37,1.1,1.81,0.62,3.03,0.96c0.31,0.26,0.61,0.51,0.92,0.77c0.94,0.28,0.88-0.42,1.69-0.46c2.1-0.1,2.22-0.04,2.76-1.84
						c2.45,0.83,6.24-7.67,4.75-8.44c1.71-0.63,2.96-6.86,2.76-8.59c-0.18-0.38-0.58,0.31-0.77-0.15
						c1.77-0.65,1.42-10.26,0.15-11.04c1.33-1.1,0.03-3.85,0.15-5.68c-0.27-0.47-0.47,0.42-0.61,0c-0.19-1.55,0.64-3.11-0.15-4.6
						c-0.74-1.38-0.36-1.12-0.73-2.69c-0.17-0.74-1.3-3.39,0.4-3.21c1.03,0.11,2.83-0.43,3.72,0.23c2.14,1.59,0.78,8.85,0.74,11.11
						c-0.07,3.55-0.77,7.98,0.17,11.43l0.61-0.46l0.61,0.46c0.73,0.22,0.72,2.33-0.46,1.99l-0.32,0.69l-0.76-0.08
						c0,0.97,0,1.94,0,2.91c1.01,0.29,0.93-0.5,1.53-0.61c0.09,0.94,0.16,1.14,0.61,1.84c-0.96,0.29-1.19,0.27-1.99-0.15
						c0.29,5-3.01,18.54,5.71,17.45c4.04-0.5,3.09-7.86,3.08-10.71c-0.01-1.37,0.61-8.49-0.96-8.43c-0.44,0.03,0.27,0.68-0.61,0.46
						c0.11-0.47-0.42-0.3-0.31-0.77c1.13,0.31,1.74-0.81,2.3-1.84c0.62,1.88,1.17,3.84,1.84,5.68c0.29,0.4,0.71-0.6,0.92,0.15
						c-0.79,2.54,0.93,5.82,1.69,8.28c0.7,2.27,1.11,7.1,4.45,6.9c0.09-0.28-0.45-0.64,0-0.77c0.55,0.88,2.32,1.14,2.76,0
						c0.58,1.09,2.4,0.41,3.07-0.15c0.04-0.42,0.14-0.83,0.31-1.22c0.26,0.08,0.51,0.08,0.76,0c0.74-1.4,0.15-3.11-0.39-4.46
						c-0.59-1.46-1.11-2.88-1.62-4.36c-0.21-0.59-1.31-1.26-1.21-1.84c0.2-1.2-2.62-7.75-3.98-8.21c0.95-0.99-0.61-1.75-0.31-2.76
						c0.02-0.08,1.94-1.55,1.99-1.53c0.07-0.74-0.94-0.39-0.77-1.23c-0.03-0.04,2.56,0.2,2.66,0.12c0.57-0.4,2.68-2.38,1.79-3.19
						c1.44,0.81,3.69-3.87,3.98-5.18c0.94-4.3,0-8.15-1.68-12c1.43,0,2.86,0,4.29,0c-0.1,3.26,0.04,6.51,0.17,9.76
						c0.13,3.3-0.5,6.77-0.17,10.02c0.17,1.73,0.37,3.54,0.15,4.91c-0.13,0.85,0.15,1.96-0.02,2.96c-0.18,1.06,0.95,0.79,0.79,1.49
						c-0.43,0.13-0.4-0.22-0.77-0.15c-0.04,1.79-1.17,12.28,0.77,12.88c-2.88,0.24,1.07,2.86,1.07,2.76
						c-0.12,0.39-1.14-0.11-1.07,0.46c1.96,2.13,6.52,1.65,10.43,1.84c0.37-0.11-0.45-1.08,0.31-1.07c0.38,1.8,6.73,1.24,8.13,0.92
						c0.31-2.12-0.27-4.18-0.31-6.29c-0.04-2.29-0.1-2.59-2.91-2.41c-0.33,0.02-1.06,0.57-1.23,0.57c-0.52-0.01-1.08-0.51-1.67-0.56
						c-1.17-0.09-4.47-0.41-5.39,0.56c1.08-2.02-0.03-5.19,0.06-7.37c0.08-1.72,0.11-3.44,0.07-5.17c-0.04-0.87-0.03-1.75,0.01-2.62
						c0.1-1.23,1-1.28,1.23-2.34c0.26-1.17,0.54-1.31,1.54-0.86c1.15,0.52,0.81,1.17,2.73,0.8c2.25-0.44,6.02,1.93,6.47-2.24
						c-0.83-0.36-2.08-0.24-2.76-1.07c0.53,0.01,2.72-1.1,2.92-1.53c0.27-0.61-0.63-3.9-1.28-4.13c-2.32-0.8-5.7-1.46-8.07-0.02
						c0.38,0.1,1.56,0.61,0.75,1.16c-1.19,0.8-0.8-0.63-1.46-0.73c-0.05,0.01-0.12,0.02-0.21,0.03c0.08-0.04,0.15-0.04,0.21-0.03
						c0.44-0.1-0.03-0.34-0.05-0.74c-3.27,0.77-2.06-4.66-2.18-6.56c-0.13-2.06-0.77-4.65,1.99-5c2.19-0.28,5.31,0.97,7.26-0.3
						c0.9-0.58,1.37,0.61,2.11-0.08c0.31-0.29,0.97-0.49,1.4-0.33c-0.1-0.04-0.01,1.42,0.58,0.52c-0.06,0.09,0.26,2.78,0.49,3.01
						c-0.5,0.08-0.32-0.76-0.77-0.31c-0.41,2.03-0.76,5.88,1.23,6.44c-0.21,0.48-0.76-0.21-0.92,0.15c0.58,0.59,0.56,2.36,0.96,3.13
						c0.61,1.17,1.43,2.23,2.34,3.18c1.42,1.46,5.01,4.77,7.28,4.28c0.24,1.8,3.7,3.04,4.57,4.94c1.2,2.64,1.14,5.98,0.29,8.71
						c-1.89,6.07-9,4.58-13.76,5.06c-0.1,3.18,0.3,5.06,0,7.82c0.47-0.35,2.05,0.55,2.64,0.56c1.61,0.02,3.26-0.19,4.86-0.35
						c3.02-0.29,6.1-1.02,8.64-2.75c1.72-1.17,9.51-11.86,5.94-13.42c0.68-0.68,1.55-3.52-0.15-3.37c1.46-1.52,0.89-2.63-0.17-3.69
						c-0.04,0-0.08,0.01-0.14,0.01c0.06-0.05,0.1-0.04,0.14-0.01c2.42-0.18-1.38-3.7-1.61-3.95c-0.89-0.97-0.24-3.9-2.82-3.1
						c0.95-1.15-5.59-5.61-6.53-6.81c-0.8-1.03-0.8-1.19-1.44-2.17c-0.26-0.41-0.58-2.25-0.32-2.06c-0.11-0.76-0.76,0.41-1.07-0.15
						c0.19-0.4,0.34-0.81,0.46-1.23c0.62-0.51,0.62,0.68,1.27-0.32c0.88-1.34,1.44-1.56,1.03-3.21c0.48,0.18,0.61,0.72,1.23,0.77
						c0.09-0.79,0.87-1.75,1.71-1.8c1.35-0.08,0.04,1.08,0.28,1.5c3.88,0.42,8.18-0.63,11.96,0.15c2.99,0.62,1.8,6.53,1.81,8.56
						c0.02,3.88-0.33,8.48,0.44,12.29c0.46,2.27,0.72,6.68,0.21,9.21c-0.03,0.44,1-0.19,0.77,0.46c-1.35,1.03-0.43,4.83-0.42,6.3
						c0.01,2.17-0.38,5.49,1.03,7.35c0.71,0.2,0.25-0.78,0.61-0.92c1.11,0.33,0.62,1.42,0,1.99c1.49,0.87,6.79,1.35,7.21-0.77
						c0.31,0.1,0.04,0.77,0.61,0.61c0.52-0.57,0.82-1.23,0.92-2c-0.03-0.89-0.86-0.95-0.08-1.83c1.26-1.44-0.43-3.53-0.83-4.92
						c1.02,0.08,0.32-3.88,0.35-4.81c0.01-0.37-0.47-4.63-0.96-4.09c0.19-0.47,0.58,0.23,0.77-0.15c-0.32-3.99,0.27-8.02-0.51-11.96
						c-0.34-1.73,0.98-7.5-0.88-8.44c1.01-0.2,0.46-2.63,0.77-3.53c0.52-1.59,0.99-2.15,2.78-2.47c3.38-0.62,6.83-0.02,10.22,0.02
						c0.01-0.09,0.02-0.17,0.04-0.26L216.62,88.87 M67.55,121.69c-0.46,0.66-2.04-0.41-1.07-0.92
						C66.66,120.67,68.09,120.92,67.55,121.69z M103.13,110.34c0.02,3.89-0.83,8.66-1.99,11.66c0.48,0.43,0.71-0.31,1.23-0.31
						c0.12,0.84-3.64,3.21-4.6,3.07c-2.88-0.42-2.52-4.96-4.14-6.75c1-1.9-0.22-5.68-0.24-7.76c-0.01-1.23,0.92-6.49-0.38-6.97
						c1.49,0.11,1.93-3.75,2.31-4.81c0.23-0.66-0.33-1.1-0.16-1.63c0.22-0.68,1.41-0.82,1.23-1.69c0.61-0.2,0.37,0.45,0.77,0.46
						c0.44-1.19,1.48-0.38,2.45-0.61c0.75,2.54,2.23,4.66,2.82,7.29c0.17,0.74,0.61,6.06,1.02,6.05
						C102.9,108.86,103.12,109.39,103.13,110.34 M129.66,93.16c0.92,0.4,1.05,0.18,1.84,0.31c-0.22,0.43-0.87,0.45-1.84,0.46
						C129.66,93.67,129.66,93.42,129.66,93.16 M130.43,101.9c-0.21,0.24-1.42,0.72-1.38,1.07c0.05,0.43,1.56,0.31,0.92,0.92
						c-2.35-1.24-5.31,0.76-8.13,0.92c0.01-1.81-1.54-9.54-0.09-10.66c1.79-1.39,5.63,1.77,6.84,0.08c0.27,1.56,1.84,1.79,2.59,2.98
						C132.03,98.58,131.42,100.77,130.43,101.9 M181.65,124.91C181.54,127.79,178.09,125.04,181.65,124.91L181.65,124.91z
						 M198.83,124.14c1.22,0.03,0.32,1.23,1.23,1.53C198.86,126.01,198.53,124.8,198.83,124.14z M200.36,92.09
						c-0.62-0.52-1.53-1.72,0.15-1.69C199.96,90.9,200.62,91.64,200.36,92.09z M200.06,89.79c0.49-0.81-0.51-0.88-0.92-1.23
						C200.21,87.65,201.65,89.82,200.06,89.79z"/>
					<path class="st3" d="M216.58,91.02c0.02,0,0.04,0,0.04,0v-0.25C216.6,90.85,216.6,90.93,216.58,91.02"/>
				</g>
				<g>
					<polyline class="st5" points="227.38,59.95 218.59,66.3 227.38,71.61 					"/>
					<polyline class="st5" points="234.68,58.15 223.19,66.46 234.68,73.4 					"/>
					<polyline class="st5" points="241.37,56.8 227.85,66.58 241.37,74.74 					"/>
					<rect x="216.23" y="79.75" class="st2" width="9.2" height="53.72"/>
					<path class="st2" d="M229.89,79.75h-13.66v33.44h18.34v-11.3l-3.65,1.98h-6.33l-0.2-11.68l10.18-2.71V82.3
						C232.88,82.03,231.63,80.4,229.89,79.75z"/>
					<path class="st2" d="M225.43,133.28c0,1.84-2.06,3.33-4.6,3.33c-2.54,0-4.6-1.49-4.6-3.33c0-1.84,2.06-3.33,4.6-3.33
						C223.37,129.95,225.43,131.44,225.43,133.28z"/>
					<path class="st2" d="M245.31,129.25c0,0-6.79,4.79-6.79,4.79c-0.03,0.02-0.47-0.34-0.52-0.38c-0.82-0.61-1.58-1.29-2.15-2.14
						c-0.24-0.37-0.48-0.73-0.72-1.1c-0.2-0.3-0.39-0.6-0.58-0.9c-0.23-0.36-0.46-0.73-0.7-1.09c-0.27-0.42-0.54-0.84-0.81-1.26
						c-0.3-0.47-0.6-0.94-0.91-1.42c-0.33-0.51-0.66-1.02-0.99-1.53c-0.35-0.54-0.7-1.08-1.04-1.62c-0.36-0.56-0.72-1.12-1.08-1.68
						c-0.37-0.57-0.73-1.13-1.09-1.7c-0.36-0.56-0.72-1.12-1.08-1.69c-0.35-0.54-0.7-1.09-1.05-1.64c-0.33-0.52-0.67-1.05-1.01-1.57
						c-0.32-0.5-0.64-0.99-0.96-1.49c-0.3-0.46-0.6-0.93-0.9-1.39c-0.27-0.42-0.53-0.83-0.8-1.25c-0.22-0.35-0.44-0.69-0.67-1.04
						c-0.16-0.26-0.33-0.52-0.5-0.78c-0.11-0.17-0.22-0.33-0.32-0.5c-0.06-0.1-0.13-0.2-0.19-0.29c-0.02-0.03-0.04-0.07-0.07-0.11
						l8.62-3.61L245.31,129.25z"/>
					<path class="st2" d="M236.58,127.05"/>
					<path class="st6" d="M242.84,133.48l5.41-0.01l6.49-2.02l5.38-3.25l4.54-4.39l3.84-4.55l2.26-4.39l1.23-5.04l-1.04-4.89
						c0,0-0.48,11.19-11.43,18.49c-1.68,1.12-3.6,2.15-5.81,3.03c-0.15,0.06-0.3,0.12-0.45,0.17c-1.5,0.58-2.84,0.75-4.65,0.79
						c-2.45,0.06-5.01-1.55-6.69-3.5c-0.29-0.34-0.47-0.54-0.78-0.96"/>
					<line class="st7" x1="228.86" y1="79.84" x2="231.71" y2="79.84"/>
					<linearGradient id="SVGID_2_" gradientUnits="userSpaceOnUse" x1="219.7112" y1="91.1087" x2="274.4858" y2="111.045">
						<stop  offset="0.2761" style="stop-color:#628343"/>
						<stop  offset="0.6074" style="stop-color:#91B355"/>
					</linearGradient>
					<path class="st8" d="M243.15,130.23l-3.44,0.84l-1.56,1.66l-0.12,0.97l0.48,0.35c0,0,0.37,0.24,0.9,0.53
						c0.63,0.34,0.93,0.52,2.06,0.94c0.84,0.31,1.37,0.5,2.62,0.68c18.13,2.66,31.73-17.69,31.73-35.78
						c0-20.34-17.32-36.83-38.69-36.83c-2.62,0-5.18,0.25-7.66,0.73c0.25,1.21,0.64,2.42,0.88,3.63c1.98-0.33,4.01-0.52,6.09-0.52
						c19.13,0,34.65,14.77,34.65,32.99c0,16.26-12.35,29.76-28.6,32.49"/>
					<path class="st2" d="M237.65,132.77l0.45,0.93l0.6,0.46c0,0,0.67,0.41,1.09,0.62c0.48,0.24,0.32,0.14,1.11,0.52
						c0.59,0.28,0.54,0.21,1.3,0.5c0.61,0.22,1.25,0.29,2.02,0.42c0.61,0.1,0.71,0.07,1.24,0.11c2.56,0.17,0.77-4.01,0.77-4.01
						l-1.2-2.87l-2.04-0.46l-3.32,0.45l-1.24,0.96l-0.72,1.46L237.65,132.77z"/>
					<path class="st2" d="M231.71,79.75c-7.96,0-14.41,7.61-14.41,16.99c0,9.39,6.45,17,14.41,17c7.96,0,14.41-7.61,14.41-17
						C246.12,87.36,239.67,79.75,231.71,79.75z M231.17,101.62c-0.16,0.04-0.35,0.06-0.51,0.09l0,0h-5.64v-9.59h5.64l0,0
						c0.17,0.02,0.4,0.07,0.56,0.12c1.97,0.66,3.5,2.43,3.5,4.67C234.71,99.16,233.21,101.1,231.17,101.62z"/>
				</g>
			</g>
		</g>
		<g>
			<path class="st5" d="M307.62,179.38c0-1.46,0.04-2.93-0.01-4.39c-0.03-0.97,0.34-1.35,1.31-1.38c2.29-0.09,2.38-0.04,2.38,2.19
				c0,3.22,0.03,6.44-0.03,9.66c-0.01,0.58-0.29,1.56-0.61,1.64c-0.96,0.23-2.12,0.55-2.89-0.5c-1.19-1.62-2.32-3.28-3.48-4.91
				c-0.09-0.13-0.2-0.25-0.57-0.72c0,1.78,0.01,3.18,0,4.58c-0.01,1.59-0.21,1.68-2.08,1.76c-1.29,0.05-1.6-0.5-1.58-1.67
				c0.06-3.4-0.01-6.8,0.05-10.2c0.01-0.58,0.28-1.61,0.56-1.67c1.04-0.19,2.26-0.57,3.08,0.56c1.09,1.52,2.14,3.08,3.21,4.62
				c0.12,0.18,0.26,0.34,0.4,0.51C307.44,179.43,307.53,179.41,307.62,179.38z"/>
			<path class="st5" d="M123.88,179.55c0-1.55,0.04-3.11-0.01-4.66c-0.03-0.94,0.34-1.25,1.26-1.27c2.38-0.07,2.38-0.1,2.38,2.31
				c0,3.13,0.02,6.26-0.02,9.39c-0.01,0.66,0.42,1.6-0.78,1.82c-1.12,0.2-2.22,0.43-3-0.74c-1.01-1.53-2.05-3.04-3.09-4.55
				c-0.17-0.24-0.38-0.45-0.78-0.93c0,1.89-0.06,3.48,0.02,5.06c0.06,1.29-0.72,1.34-1.64,1.31c-0.92-0.03-1.97,0.21-1.96-1.29
				c0.02-3.71-0.01-7.42,0.04-11.14c0.01-0.4,0.35-1.11,0.58-1.13c1.06-0.09,2.27-0.55,3.08,0.61c1.23,1.75,2.43,3.52,3.64,5.28
				C123.69,179.6,123.79,179.57,123.88,179.55z"/>
			<path class="st5" d="M272.66,187.58c-3.93,0-7.18-3.23-7.21-7.15c-0.02-3.86,3.25-7.17,7.14-7.23c3.92-0.06,7.28,3.28,7.27,7.23
				C279.86,184.34,276.59,187.58,272.66,187.58z M272.61,183.9c2.06,0.01,3.58-1.47,3.57-3.51c-0.01-1.92-1.58-3.52-3.46-3.53
				c-1.93-0.01-3.58,1.63-3.58,3.57C269.14,182.38,270.65,183.89,272.61,183.9z"/>
			<path class="st5" d="M62.37,180.35c0.01,3.98-3.13,7.21-7.05,7.24c-4.02,0.03-7.23-3.17-7.22-7.21c0-3.89,3.14-7.14,6.87-7.12
				C59.27,173.29,62.36,176.25,62.37,180.35z M55.3,183.89c1.96-0.02,3.46-1.52,3.46-3.48c0-1.91-1.57-3.52-3.45-3.54
				c-1.92-0.02-3.65,1.66-3.65,3.54C51.66,182.31,53.32,183.9,55.3,183.89z"/>
			<path class="st5" d="M148.59,180.37c0-1.79,0.04-3.58-0.02-5.36c-0.03-1.05,0.39-1.45,1.42-1.41c1.34,0.05,2.68-0.01,4.02,0.04
				c3.63,0.13,6.4,3.16,6.36,6.91c-0.04,3.65-2.87,6.53-6.5,6.62c-1.33,0.03-2.67,0.07-4,0.11c-0.89,0.03-1.3-0.37-1.29-1.29
				C148.61,184.12,148.59,182.25,148.59,180.37z M152.28,183.55c0.49,0.02,0.75,0.05,1.02,0.05c2.1,0.01,3.43-1.25,3.4-3.24
				c-0.02-1.92-1.51-3.28-3.52-3.15c-0.31,0.02-0.85,0.42-0.86,0.66C152.25,179.72,152.28,181.59,152.28,183.55z"/>
			<path class="st5" d="M95.45,177.94c-0.12,1.51-0.08,3.05-0.38,4.53c-0.64,3.16-3.28,5.2-6.32,5.11
				c-3.01-0.09-5.59-2.35-5.94-5.54c-0.26-2.43-0.16-4.91-0.2-7.36c-0.01-0.69,0.35-1.07,1.08-1.04c0.49,0.02,0.98,0.01,1.48-0.01
				c0.8-0.02,1.1,0.37,1.09,1.16c-0.03,1.79-0.01,3.58-0.01,5.37c0,0.31-0.01,0.63,0.01,0.94c0.13,1.71,1.31,2.96,2.73,2.93
				c1.46-0.04,2.61-1.3,2.65-2.99c0.04-1.97,0.1-3.94-0.01-5.9c-0.09-1.68,0.99-1.47,2.02-1.51c1.07-0.04,1.87,0.12,1.72,1.51
				c-0.1,0.93-0.02,1.88-0.02,2.82C95.38,177.94,95.41,177.94,95.45,177.94z"/>
			<path class="st5" d="M189.52,187.29c-0.9,0.11-1.62-0.22-1.8-1.34c-0.14-0.88-0.69-1.15-1.53-1.04c-0.4,0.05-0.81,0.05-1.2,0
				c-1.08-0.15-1.72,0.2-2.02,1.35c-0.26,1-3.02,1.52-3.64,0.72c-0.19-0.24-0.15-0.78-0.03-1.12c1.3-3.79,2.62-7.57,4-11.32
				c0.14-0.38,0.73-0.79,1.15-0.85c2.63-0.36,2.74-0.24,3.61,2.29c1.04,3.03,2.11,6.05,3.18,9.07
				C191.97,187.11,191.84,187.3,189.52,187.29z M186.49,181.66c-0.36-1.03-0.66-1.89-0.96-2.76c-0.09,0.01-0.19,0.03-0.28,0.04
				c-0.26,0.87-0.52,1.75-0.81,2.72C185.16,181.66,185.72,181.66,186.49,181.66z"/>
			<path class="st5" d="M23.1,182.05c0,1.42-0.04,2.67,0.01,3.91c0.06,1.51-1.07,1.3-1.93,1.31c-0.84,0-1.8,0.08-1.77-1.33
				c0.06-3.67,0.04-7.34,0.01-11c-0.01-0.9,0.3-1.32,1.23-1.31c2.33,0.02,4.65,0.02,6.98-0.01c0.97-0.01,1.19,0.47,1.19,1.33
				c0,2.23,0.03,2.23-2.16,2.23c-1.11,0-2.22,0-3.45,0c-0.04,0.55-0.07,0.97-0.12,1.59c1.16,0,2.22,0.02,3.27-0.01
				c0.72-0.02,1.18,0.27,1.05,1.01c-0.14,0.8,0.67,2.07-0.87,2.25C25.44,182.15,24.32,182.05,23.1,182.05z"/>
			<path class="st5" d="M213.29,177.17c-0.85,0-1.6-0.01-2.35,0c-0.75,0.01-1.19-0.25-1.13-1.1c0.04-0.49-0.12-1.03,0.05-1.46
				c0.15-0.39,0.59-0.94,0.92-0.95c2.94-0.07,5.89-0.07,8.83,0c0.34,0.01,0.91,0.55,0.97,0.91c0.38,2.29,0.08,2.6-2.28,2.61
				c-0.35,0-0.7,0-1.27,0c0,1.09,0,2.1,0,3.1c0,1.83-0.08,3.66,0.03,5.49c0.09,1.54-0.9,1.48-1.88,1.49
				c-1.03,0.02-1.91-0.09-1.85-1.56c0.1-2.32,0.03-4.64,0.02-6.96C213.35,178.28,213.31,177.81,213.29,177.17z"/>
			<path class="st5" d="M244.95,180.4c0,1.83-0.05,3.66,0.02,5.49c0.05,1.46-0.96,1.38-1.87,1.37c-0.9-0.01-1.88,0.1-1.85-1.38
				c0.07-3.61,0.07-7.23-0.01-10.84c-0.04-1.58,0.95-1.4,1.94-1.43c1.01-0.02,1.87,0,1.8,1.44
				C244.89,176.83,244.96,178.62,244.95,180.4C244.96,180.4,244.96,180.4,244.95,180.4z"/>
		</g>
	</g>
</g>
</svg>
