<?xml version="1.0" encoding="UTF-8"?>
<svg width="39px" height="27px" viewBox="0 0 39 27" version="1.1" xmlns="http://www.w3.org/2000/svg" xmlns:xlink="http://www.w3.org/1999/xlink">
    <!-- Generator: Sketch 56.3 (81716) - https://sketch.com -->
    <title>Group 3</title>
    <desc>Created with Sketch.</desc>
    <defs>
        <polygon id="path-1" points="0 0 39 0 39 27 0 27"></polygon>
    </defs>
    <g id="Welcome" stroke="none" stroke-width="1" fill="none" fill-rule="evenodd">
        <g id="0.2-HOME-Copy" transform="translate(-1231.000000, -4055.000000)">
            <g id="Group-2" transform="translate(0.000000, 4031.000000)">
                <g id="Group-3" transform="translate(1231.000000, 24.000000)">
                    <mask id="mask-2" fill="white">
                        <use xlink:href="#path-1"></use>
                    </mask>
                    <g id="Clip-2"></g>
                    <path d="M15.6129024,19.2811305 L15.6129024,7.71892982 L25.7642381,13.5 L15.6129024,19.2811305 Z M38.1964419,4.22487178 C37.7470146,2.57283588 36.4297192,1.2705556 34.7592501,0.825686229 C31.7073166,0 19.4995825,0 19.4995825,0 C19.4995825,0 7.29227535,0 4.24040282,0.794383734 C2.60201823,1.2387706 1.25257735,2.57307713 0.803150032,4.22487178 C0,7.24233577 0,13.5 0,13.5 C0,13.5 0,19.7893286 0.803150032,22.7751885 C1.25306532,24.4269832 2.56987271,25.7292635 4.24064681,26.1741328 C7.32442087,27 19.5000704,27 19.5000704,27 C19.5000704,27 31.7073166,27 34.7592501,26.2056766 C36.4299632,25.7610485 37.7470146,24.4587682 38.1969299,22.8069735 C39,19.7893286 39,13.531785 39,13.531785 C39,13.531785 39.0319814,7.24233577 38.1964419,4.22487178 L38.1964419,4.22487178 Z" id="Fill-1" fill="#68B04E" mask="url(#mask-2)"></path>
                </g>
            </g>
        </g>
    </g>
</svg>