<svg width="33" height="33" xmlns="http://www.w3.org/2000/svg" xmlns:xlink="http://www.w3.org/1999/xlink"><defs><path id="a" d="M0 0h33v33H0z"/></defs><g fill="none" fill-rule="evenodd"><mask id="b" fill="#fff"><use xlink:href="#a"/></mask><path d="M16.5 0C7.387 0 0 7.418 0 16.57c0 8.206 5.949 15.003 13.748 16.32V20.026h-3.98v-4.63h3.98v-3.412c0-3.96 2.409-6.119 5.928-6.119 1.685 0 3.133.126 3.554.182v4.14h-2.44c-1.914 0-2.283.913-2.283 2.253v2.955h4.565l-.595 4.629h-3.97V33C26.671 32.002 33 25.032 33 16.564 33 7.418 25.613 0 16.5 0" fill="#68B04E" mask="url(#b)"/></g></svg>