<svg width="1440" height="1165" xmlns="http://www.w3.org/2000/svg"><g fill="none" fill-rule="evenodd"><path fill="#FFF" d="M0 0h1440v1165H0z"/><circle stroke="#68B04E" stroke-width="4" cx="-29" cy="146" r="105"/><g transform="translate(-144 39)"><circle stroke="#68B04E" stroke-width="4" cx="600.5" cy="472.5" r="472.5"/><circle stroke="#68B04E" stroke-width="4" cx="1077" cy="107" r="105"/><circle stroke="#68B04E" stroke-width="4" cx="1559.5" cy="472.5" r="472.5"/><circle stroke="#68B04E" stroke-width="4" cx="105" cy="837" r="105"/><circle stroke="#68B04E" stroke-width="4" fill="#FFF" cx="787" cy="837" r="105"/><circle stroke="#68B04E" stroke-width="4" fill="#68B04E" cx="1318" cy="797" r="105"/><circle stroke="#68B04E" stroke-width="4" fill="#68B04E" cx="389" cy="797" r="105"/><circle fill="#68B04E" cx="435.5" cy="938.5" r="34.5"/><circle fill="#68B04E" cx="358.5" cy="926.5" r="19.5"/><circle fill="#68B04E" cx="1383.5" cy="682.5" r="19.5"/><circle fill="#68B04E" cx="1283.5" cy="926.5" r="19.5"/><circle stroke="#68B04E" stroke-width="4" cx="1230" cy="46" r="44"/><circle stroke="#68B04E" stroke-width="4" cx="269" cy="46" r="44"/><circle stroke="#68B04E" stroke-width="4" fill="#FFF" cx="1167" cy="702" r="44"/><path stroke="#68B04E" stroke-width="3" fill="#FFF" d="M596.5 945.5h9v106h-9zm477-4h9v110h-9zm-290 0h9v110h-9zm531-39h9v149h-9zm-152-155h9v304h-9zm-777 155h9v149h-9z"/><circle stroke="#68B04E" stroke-width="4" fill="#FFF" cx="1077" cy="837" r="105"/></g></g></svg>