<svg width="33" height="33" xmlns="http://www.w3.org/2000/svg" xmlns:xlink="http://www.w3.org/1999/xlink"><defs><path id="a" d="M0 0h33v33H0z"/></defs><g fill="none" fill-rule="evenodd"><mask id="b" fill="#fff"><use xlink:href="#a"/></mask><path d="M25.369 6.532a1.1 1.1 0 100 2.199 1.1 1.1 0 000-2.2zM16.5 21.656a5.163 5.163 0 01-5.156-5.156 5.162 5.162 0 015.156-5.156 5.162 5.162 0 015.156 5.156 5.163 5.163 0 01-5.156 5.156zm0-13.406a8.25 8.25 0 100 16.5 8.25 8.25 0 000-16.5zm13.406 14.438c0 3.98-3.238 7.218-7.218 7.218H10.313c-3.981 0-7.22-3.238-7.22-7.218V10.313c0-3.981 3.239-7.22 7.22-7.22h12.374c3.981 0 7.22 3.239 7.22 7.22v12.374zM22.688 0H10.313C4.617 0 0 4.618 0 10.313v12.374C0 28.383 4.618 33 10.313 33h12.374C28.383 33 33 28.382 33 22.687V10.313C33 4.619 28.382 0 22.687 0z" fill="#68B04E" mask="url(#b)"/></g></svg>