<svg width="1440" height="739" xmlns="http://www.w3.org/2000/svg"><g fill="none" fill-rule="evenodd"><path fill="#FFF" d="M0 0h1440v739H0z"/><g transform="translate(-69 -206)"><circle stroke="#68B04E" stroke-width="4" cx="556.5" cy="437.5" r="437.5"/><circle stroke="#68B04E" stroke-width="4" cx="1460.5" cy="437.5" r="437.5"/><circle stroke="#68B04E" stroke-width="4" cx="97" cy="775" r="97"/><ellipse stroke="#68B04E" stroke-width="4" fill="#FFF" cx="728.5" cy="775" rx="97.5" ry="97"/><ellipse stroke="#68B04E" stroke-width="4" fill="#68B04E" cx="1220.5" cy="748" rx="97.5" ry="97"/><circle stroke="#68B04E" stroke-width="4" fill="#FFF" cx="360" cy="750" r="97"/><circle fill="#68B04E" cx="332" cy="858" r="18"/><circle fill="#68B04E" cx="403" cy="869" r="32"/><circle fill="#68B04E" cx="1188" cy="868" r="18"/><ellipse stroke="#68B04E" stroke-width="4" fill="#FFF" cx="1095.5" cy="668" rx="40.5" ry="41"/><path stroke="#68B04E" stroke-width="3" fill="#FFF" d="M552.5 875.5h8v68h-8zm442-4h8v72h-8zm-269 0h8v72h-8zm492-25h8v97h-8zm-126-138h8v236h-8zm-734 140h8v95h-8z"/><circle stroke="#68B04E" stroke-width="4" fill="#FFF" cx="997" cy="775" r="97"/></g></g></svg>