<svg xmlns="http://www.w3.org/2000/svg" viewBox="0 0 330.71 187.59"><style>.st2{fill:#91b355}.st3{fill-rule:evenodd;clip-rule:evenodd;fill:#4d8b3f}.st5{fill:#628343}</style><linearGradient id="SVGID_1_" gradientUnits="userSpaceOnUse" x1="-47.244" y1="323.001" x2="-46.537" y2="322.294"><stop offset="0" stop-color="#64aa53"/><stop offset=".983" stop-color="#283922"/></linearGradient><g id="Layer_1"><path d="M325.71 92.7c0-32.72-26.53-59.24-59.25-59.24a59 59 0 00-25.3 5.67C233.47 28.73 221.13 22 207.21 22c-11.05 0-21.11 4.25-28.64 11.21C169 13.55 148.83 0 125.5 0c-23.11 0-43.1 13.29-52.78 32.64-3.01-.41-6.09-.64-9.22-.64C28.43 32 0 59.2 0 92.74c0 27.22 18.71 50.25 44.5 57.98l.03.01c2.13.64 4.3 1.16 6.52 1.58l.11.03h.07c3.97.74 8.08 1.14 12.28 1.14 1.6 0 3.17-.07 4.74-.19l.15.01s122.89-.84 183.86-1.26c3.62-.02 6.95-.13 9.98-.28 1.4.1 2.81.17 4.23.17a59 59 0 0017.13-2.53c.06-.01.1-.02.1-.02l.01-.01c24.3-7.36 42-29.95 42-56.67z" fill="#f9f9e8"/><path d="M330.71 101.89c0-32.72-26.53-59.25-59.25-59.25a59 59 0 00-25.3 5.67c-7.69-10.39-20.03-17.13-33.95-17.13-11.05 0-21.11 4.25-28.64 11.21C174 22.73 153.84 9.18 130.5 9.18c-23.11 0-43.1 13.29-52.78 32.64-3.01-.42-6.08-.64-9.22-.64-35.07 0-63.5 27.2-63.5 60.75 0 27.22 18.71 50.26 44.5 57.98l.03.01c2.13.64 4.3 1.16 6.52 1.58l.11.03h.07c3.97.74 8.08 1.14 12.28 1.14 1.6 0 3.17-.07 4.74-.19l.15.01s122.89-.84 183.86-1.26c3.62-.02 6.95-.13 9.98-.28 1.4.1 2.81.17 4.23.17a59 59 0 0017.13-2.53c.06-.01.1-.02.1-.02l.01-.01c24.3-7.36 42-29.95 42-56.67z" fill="#f9f9f2"/><path class="st2" d="M217.95 86.12v-6.04c0-.68-3.62-.31-4.38-.31-38.29.03-76.59 0-114.88 0H88.42v-.01H71.85c-1.7 0-3.48-.17-5.17 0-5.4 0-4.52 5.05-4.54 8.77.01 0 .02-.01.04-.01v41.16c0 5.11 3.22 6.64 8.37 4.46.65.58.81-3.16.81-3.45V109.2c.23.08.55.63.84.88 0-.17 7.3.31 8.47-.28 2.53-1.28 2.6-9.07-.71-9.76-2.35-.49-4.89-.18-7.28-.18-1.7 0-.89-1.88-.89-3.24 0-1.82-.4-4.14.09-5.93.79-2.89 7.23-1.6 9.32-1.58 3.19.02 6.36-.04 9.54.17-6.87 7.97-6.68 18.79-4.58 28.5 1.23 5.67 4.52 18.24 12.24 18.24 6.92 0 10.04-10.36 10.98-15.43 1.87-10.15 1.09-22.14-2.9-31.8 1.11 0 4.24-.39 5.14.6 1.11 1.22 1.53 2.82 1.53 4.14 0 4.2-.33 8.55-.33 12.75 0 5.23-.25 10.69-.25 15.92 0 3.43.42 6.32.42 9.75 0 4.41 7.47 4.68 7.81.35.61-2.29.79-5.46.79-7.84 0-2.75-.33-6.13-.43-9.06-.02-.49 1.27-.24 1.16-.69 1.02 4.43.78 4.16 2.27 8.19 1.21 3.28 2.08 12.92 6.28 12.92 2.84 0 5.44-.26 6.46-1.32 1.96-2.04-.35-6.24-1.19-8.55-1.62-4.5-3.2-9.43-5.78-13.35 9.66-2.89 11.68-15.61 7.78-24.14 1.1.01 3.51.5 4.6.51v4.93c0 2.74 0 5.48.01 8.23.01 5.75-.15 11.52-.15 17.27 0 3.63-1.49 10.96.47 14.19 2.06 3.38 10.41 2.35 13.62 2.45 2.07.06 3.55-.09 5.61-.21.28-.27-.11-2.81-.11-3.18 0-.49-.28-5.44-.44-5.44-1.31-.01-10.31-.41-10.31-.92v-14.05c0-5.5 9.78.53 11.65-3.46 1.02-2.19 1.08-6-.65-7.87-2.44-2.65-7.7.99-10.48-.81-1.86-1.21-1.19-10.19.69-10.88 1.87-.68 4.24-.7 6.57-.58 1.75.08 3.48.24 4.96.25-1.44 4.42-.68 10.54 1.99 14.37 3.09 4.42 9.33 4.96 12.77 8.96 2.94 3.41 2.64 9.65-.6 12.81-2.79 2.34-5.7 2.36-9.04 2.56-2.03.13-3.45.01-3.42 1.75.02 1.44.02 3.03.04 4.47.01 1.01-.32 1.93.21 2.14.66.27 1.83.14 2.77.13 4.46-.04 9.53-.88 13.46-3.22 8.67-5.16 10.14-20.96 2.95-27.81-2.84-2.71-9.9-5.92-9.73-10.54.24-6.26 10.31-4.44 14.08-4.38 5.48.1 3.88 4.59 3.88 8.83 0 11.06.35 21.81 1.15 32.84.11 1.49.41 3.08 1.73 3.68 1.56.71 3.25.94 4.82.68 1.62-.26 3.21-.73 3.68-2.95 1.18-5.55-.46-13.44-.62-19.2-.17-6-.43-12-.43-18.01 0-5.82 4.75-5.31 9.66-5.15.76-.03 3.86.47 4.38-.02.52-.46.04-4.05.04-4.71zm-115.77 30.89c-.24 1.32-.55 2.63-.99 3.89-.42 1.23-1.26 3.53-2.82 3.53-1.18 0-2.13-1.69-2.57-2.63-2.29-4.93-2.19-10.73-1.66-16.06.17-1.73.47-3.45.88-5.13.34-1.4.81-2.75 1.73-3.88 1.14-1.4 2.78-.6 3.61.62.98 1.44 1.23 3.25 1.54 4.94.47 2.59.78 5.21.82 7.85.03 2.31-.13 4.6-.54 6.87zm29.21-17.04c-.17.71-.58 1.46-1.13 1.94-.6.53-1.36.8-2.07 1.13-.31.14-.65.23-.97.35-.61.22-1.24.48-1.86.64-.18.05-.37.03-.54.09-.32.11-.65.19-.97.28-.22.06-.43.17-.65.19-.35.03-.73.16-1.08.13-.28-.02-.27-.48-.28-.71-.02-.3-.02-.6-.03-.89-.01-.32-.02-.67-.06-.99-.05-.4-.1-.79-.18-1.18-.07-.35-.15-.71-.18-1.07-.03-.33-.02-.66-.06-.98-.13-.91-.12-1.8-.08-2.71.02-.3.04-.58.08-.88.04-.28.09-.56.12-.83.09-.74 1.33-.62 1.87-.67l1.96.38s1.95.54 1.96.54c.65.18 1.31.58 1.93.85 1.04.46 1.8 1.18 2.24 2.24.27.73.16 1.4-.02 2.15z"/><path class="st3" d="M216.62 88.87v-.01.01m0-2.76s-.01-.01 0 0v1.5c.11-.62.28-1.2 0-1.5m0 2.75v-1.25c-.09.43-.15.88 0 1.25z"/><path d="M216.62 88.87c-2.28-.6-.58-3.37 0-2.76l-.01-6.26c-10.03-.05-20.56-.03-28.67.13-.05.92.93.81 1.23 1.38-1.75 1.04-3.01-.19-2.45-1.53-5.69.96-11.3-.22-17.22.06-1.62.07-3.94-.47-5.48-.06-1.32.35-.86.2-2.48.01-3.96-.49-8.2 1.05-12.09-.01.11 1.56-.97.99-1.53 1.84.88-1.73-1.84-2.31-2.45-.77.05-1.74-6.96-.86-8.37-.94-2.79-.16-7.21-.99-9.73.63-.32-1.01-2.15-.96-4.14-.91-2.08.06-4.34.14-5.19.11-2.26-.07-4.51.13-6.76.08-1.76-.04-3.6.42-5.23.4-1.04-.01-3.24-.33-4.99-.43-.96-.06-1.49-.2-2.23.24-.49.29-1.26-.8-2.06-.07-.99.9-2.37.08-3.13.87 0-.41.06-.88-.15-1.07-1.67-.07-3.27.31-4.91.31-2.04 0-4.06-.32-6.09-.29-.63.01-1.72-.06-2.94-.09-1.88-.06-3.96.04-4.61.87l.02.4-.49.33c.15.34-2.23.55-1.69-.61l-.48-.33.02-.59c-1.14.09-3.12-.43-3.99.61.26-1.49-3.41-.08-3.88.18-2.16 1.19-2.04 4.79-2.01 6.86.04 2.85.47 5.71.35 8.56-.06 1.41-1.01 5.72.78 6.48-1.05 1.01-1.42 5.96-.76 7.13.76 1.33-.35 4.38-.44 5.76-.15 2.29-.38 5.44-.03 7.66.53 3.31-.71 7.2.78 10.31.88 1.83 5.52 1.92 7.33 1.67 3.86-.53 2.19-4.66 2.36-7.31.25-3.96.11-7.95.11-11.91 0-1.27.43-2.88.15-4.12-.38-1.74-.04-1.18 1.07-2.61-.02.38-.02.74.15.92h2.91c.44-.27-.53-.76 0-1.07 1.02-.35.23 1.1.92 1.07 1.22.26.2-.39.92-.61 1.57 1.82 3.38-1.38 3.72-2.64.39-1.48 0-3.46-.36-4.91-1-4.03-10.01 1.05-9.8-3.04.26-5.07-1.77-10.24 5-9.81 1.91.12 3.83.49 5.74.39 1.66-.09 2.69-2.73 3.83-1.93-4.36 1.5 3.17 1.86 3.08 1.73.29.43-.83 2.02-1.09 2.56-.8 1.67-2.62 2.85-.46 4.29-.91.24-.79-.54-1.53-.46-1.02.72-.42 3.78-1.15 4.63-.95 1.1-1.11 2.61-1.16 4-.12 3.03.21 6.05.63 9.04.12.86.25 1.71.39 2.57.17 1.09.37 2.18.6 3.27.3 1.36.65 2.7 1.07 4.03.71 2.25 2.04 7.57 4.68 8.35-.66.86 1.21 2.3 1.73 2.72 1.37 1.1 1.81.62 3.03.96l.92.77c.94.28.88-.42 1.69-.46 2.1-.1 2.22-.04 2.76-1.84 2.45.83 6.24-7.67 4.75-8.44 1.71-.63 2.96-6.86 2.76-8.59-.18-.38-.58.31-.77-.15 1.77-.65 1.42-10.26.15-11.04 1.33-1.1.03-3.85.15-5.68-.27-.47-.47.42-.61 0-.19-1.55.64-3.11-.15-4.6-.74-1.38-.36-1.12-.73-2.69-.17-.74-1.3-3.39.4-3.21 1.03.11 2.83-.43 3.72.23 2.14 1.59.78 8.85.74 11.11-.07 3.55-.77 7.98.17 11.43l.61-.46.61.46c.73.22.72 2.33-.46 1.99l-.32.69-.76-.08v2.91c1.01.29.93-.5 1.53-.61.09.94.16 1.14.61 1.84-.96.29-1.19.27-1.99-.15.29 5-3.01 18.54 5.71 17.45 4.04-.5 3.09-7.86 3.08-10.71-.01-1.37.61-8.49-.96-8.43-.44.03.27.68-.61.46.11-.47-.42-.3-.31-.77 1.13.31 1.74-.81 2.3-1.84.62 1.88 1.17 3.84 1.84 5.68.29.4.71-.6.92.15-.79 2.54.93 5.82 1.69 8.28.7 2.27 1.11 7.1 4.45 6.9.09-.28-.45-.64 0-.77.55.88 2.32 1.14 2.76 0 .58 1.09 2.4.41 3.07-.15.04-.42.14-.83.31-1.22.26.08.51.08.76 0 .74-1.4.15-3.11-.39-4.46-.59-1.46-1.11-2.88-1.62-4.36-.21-.59-1.31-1.26-1.21-1.84.2-1.2-2.62-7.75-3.98-8.21.95-.99-.61-1.75-.31-2.76.02-.08 1.94-1.55 1.99-1.53.07-.74-.94-.39-.77-1.23-.03-.04 2.56.2 2.66.12.57-.4 2.68-2.38 1.79-3.19 1.44.81 3.69-3.87 3.98-5.18.94-4.3 0-8.15-1.68-12h4.29c-.1 3.26.04 6.51.17 9.76.13 3.3-.5 6.77-.17 10.02.17 1.73.37 3.54.15 4.91-.13.85.15 1.96-.02 2.96-.18 1.06.95.79.79 1.49-.43.13-.4-.22-.77-.15-.04 1.79-1.17 12.28.77 12.88-2.88.24 1.07 2.86 1.07 2.76-.12.39-1.14-.11-1.07.46 1.96 2.13 6.52 1.65 10.43 1.84.37-.11-.45-1.08.31-1.07.38 1.8 6.73 1.24 8.13.92.31-2.12-.27-4.18-.31-6.29-.04-2.29-.1-2.59-2.91-2.41-.33.02-1.06.57-1.23.57-.52-.01-1.08-.51-1.67-.56-1.17-.09-4.47-.41-5.39.56 1.08-2.02-.03-5.19.06-7.37.08-1.72.11-3.44.07-5.17-.04-.87-.03-1.75.01-2.62.1-1.23 1-1.28 1.23-2.34.26-1.17.54-1.31 1.54-.86 1.15.52.81 1.17 2.73.8 2.25-.44 6.02 1.93 6.47-2.24-.83-.36-2.08-.24-2.76-1.07.53.01 2.72-1.1 2.92-1.53.27-.61-.63-3.9-1.28-4.13-2.32-.8-5.7-1.46-8.07-.02.38.1 1.56.61.75 1.16-1.19.8-.8-.63-1.46-.73a2.6 2.6 0 01-.21.03c.08-.04.15-.04.21-.03.44-.1-.03-.34-.05-.74-3.27.77-2.06-4.66-2.18-6.56-.13-2.06-.77-4.65 1.99-5 2.19-.28 5.31.97 7.26-.3.9-.58 1.37.61 2.11-.08.31-.29.97-.49 1.4-.33-.1-.04-.01 1.42.58.52-.06.09.26 2.78.49 3.01-.5.08-.32-.76-.77-.31-.41 2.03-.76 5.88 1.23 6.44-.21.48-.76-.21-.92.15.58.59.56 2.36.96 3.13.61 1.17 1.43 2.23 2.34 3.18 1.42 1.46 5.01 4.77 7.28 4.28.24 1.8 3.7 3.04 4.57 4.94 1.2 2.64 1.14 5.98.29 8.71-1.89 6.07-9 4.58-13.76 5.06-.1 3.18.3 5.06 0 7.82.47-.35 2.05.55 2.64.56 1.61.02 3.26-.19 4.86-.35 3.02-.29 6.1-1.02 8.64-2.75 1.72-1.17 9.51-11.86 5.94-13.42.68-.68 1.55-3.52-.15-3.37 1.46-1.52.89-2.63-.17-3.69-.04 0-.08.01-.14.01.06-.05.1-.04.14-.01 2.42-.18-1.38-3.7-1.61-3.95-.89-.97-.24-3.9-2.82-3.1.95-1.15-5.59-5.61-6.53-6.81-.8-1.03-.8-1.19-1.44-2.17-.26-.41-.58-2.25-.32-2.06-.11-.76-.76.41-1.07-.15.19-.4.34-.81.46-1.23.62-.51.62.68 1.27-.32.88-1.34 1.44-1.56 1.03-3.21.48.18.61.72 1.23.77.09-.79.87-1.75 1.71-1.8 1.35-.08.04 1.08.28 1.5 3.88.42 8.18-.63 11.96.15 2.99.62 1.8 6.53 1.81 8.56.02 3.88-.33 8.48.44 12.29.46 2.27.72 6.68.21 9.21-.03.44 1-.19.77.46-1.35 1.03-.43 4.83-.42 6.3.01 2.17-.38 5.49 1.03 7.35.71.2.25-.78.61-.92 1.11.33.62 1.42 0 1.99 1.49.87 6.79 1.35 7.21-.77.31.1.04.77.61.61.52-.57.82-1.23.92-2-.03-.89-.86-.95-.08-1.83 1.26-1.44-.43-3.53-.83-4.92 1.02.08.32-3.88.35-4.81.01-.37-.47-4.63-.96-4.09.19-.47.58.23.77-.15-.32-3.99.27-8.02-.51-11.96-.34-1.73.98-7.5-.88-8.44 1.01-.2.46-2.63.77-3.53.52-1.59.99-2.15 2.78-2.47 3.38-.62 6.83-.02 10.22.02.01-.09.02-.17.04-.26l.01-1.78M67.55 121.69c-.46.66-2.04-.41-1.07-.92.18-.1 1.61.15 1.07.92zm35.58-11.35c.02 3.89-.83 8.66-1.99 11.66.48.43.71-.31 1.23-.31.12.84-3.64 3.21-4.6 3.07-2.88-.42-2.52-4.96-4.14-6.75 1-1.9-.22-5.68-.24-7.76-.01-1.23.92-6.49-.38-6.97 1.49.11 1.93-3.75 2.31-4.81.23-.66-.33-1.1-.16-1.63.22-.68 1.41-.82 1.23-1.69.61-.2.37.45.77.46.44-1.19 1.48-.38 2.45-.61.75 2.54 2.23 4.66 2.82 7.29.17.74.61 6.06 1.02 6.05-.55.52-.33 1.05-.32 2m26.53-17.18c.92.4 1.05.18 1.84.31-.22.43-.87.45-1.84.46v-.77m.77 8.74c-.21.24-1.42.72-1.38 1.07.05.43 1.56.31.92.92-2.35-1.24-5.31.76-8.13.92.01-1.81-1.54-9.54-.09-10.66 1.79-1.39 5.63 1.77 6.84.08.27 1.56 1.84 1.79 2.59 2.98.85 1.37.24 3.56-.75 4.69m51.22 23.01c-.11 2.88-3.56.13 0 0zm17.18-.77c1.22.03.32 1.23 1.23 1.53-1.2.34-1.53-.87-1.23-1.53zm1.53-32.05c-.62-.52-1.53-1.72.15-1.69-.55.5.11 1.24-.15 1.69zm-.3-2.3c.49-.81-.51-.88-.92-1.23 1.07-.91 2.51 1.26.92 1.23z" fill-rule="evenodd" clip-rule="evenodd" fill="#628343"/><path class="st3" d="M216.58 91.02h.04v-.25c-.02.08-.02.16-.04.25"/><path class="st5" d="M227.38 59.95l-8.79 6.35 8.79 5.31"/><path class="st5" d="M234.68 58.15l-11.49 8.31 11.49 6.94"/><path class="st5" d="M241.37 56.8l-13.52 9.78 13.52 8.16"/><path class="st2" d="M216.23 79.75h9.2v53.72h-9.2z"/><path class="st2" d="M229.89 79.75h-13.66v33.44h18.34v-11.3l-3.65 1.98h-6.33l-.2-11.68 10.18-2.71V82.3c-1.69-.27-2.94-1.9-4.68-2.55zm-4.46 53.53c0 1.84-2.06 3.33-4.6 3.33-2.54 0-4.6-1.49-4.6-3.33s2.06-3.33 4.6-3.33c2.54 0 4.6 1.49 4.6 3.33z"/><path class="st2" d="M245.31 129.25l-6.79 4.79c-.03.02-.47-.34-.52-.38-.82-.61-1.58-1.29-2.15-2.14-.24-.37-.48-.73-.72-1.1-.2-.3-.39-.6-.58-.9-.23-.36-.46-.73-.7-1.09l-.81-1.26c-.3-.47-.6-.94-.91-1.42l-.99-1.53c-.35-.54-.7-1.08-1.04-1.62l-1.08-1.68c-.37-.57-.73-1.13-1.09-1.7-.36-.56-.72-1.12-1.08-1.69-.35-.54-.7-1.09-1.05-1.64-.33-.52-.67-1.05-1.01-1.57-.32-.5-.64-.99-.96-1.49-.3-.46-.6-.93-.9-1.39-.27-.42-.53-.83-.8-1.25-.22-.35-.44-.69-.67-1.04-.16-.26-.33-.52-.5-.78-.11-.17-.22-.33-.32-.5-.06-.1-.13-.2-.19-.29-.02-.03-.04-.07-.07-.11l8.62-3.61 16.31 25.39z"/><path d="M242.84 133.48l5.41-.01 6.49-2.02 5.38-3.25 4.54-4.39 3.84-4.55 2.26-4.39 1.23-5.04-1.04-4.89s-.48 11.19-11.43 18.49c-1.68 1.12-3.6 2.15-5.81 3.03-.15.06-.3.12-.45.17-1.5.58-2.84.75-4.65.79-2.45.06-5.01-1.55-6.69-3.5-.29-.34-.47-.54-.78-.96" fill="#91b355" stroke="#91b355" stroke-width=".25"/><path fill="none" stroke="#91b355" stroke-width=".25" d="M228.86 79.84h2.85"/><linearGradient id="SVGID_2_" gradientUnits="userSpaceOnUse" x1="219.711" y1="91.109" x2="274.486" y2="111.045"><stop offset=".276" stop-color="#628343"/><stop offset=".607" stop-color="#91b355"/></linearGradient><path d="M243.15 130.23l-3.44.84-1.56 1.66-.12.97.48.35s.37.24.9.53c.63.34.93.52 2.06.94.84.31 1.37.5 2.62.68 18.13 2.66 31.73-17.69 31.73-35.78 0-20.34-17.32-36.83-38.69-36.83-2.62 0-5.18.25-7.66.73.25 1.21.64 2.42.88 3.63 1.98-.33 4.01-.52 6.09-.52 19.13 0 34.65 14.77 34.65 32.99 0 16.26-12.35 29.76-28.6 32.49" fill="url(#SVGID_2_)"/><path class="st2" d="M237.65 132.77l.45.93.6.46s.67.41 1.09.62c.48.24.32.14 1.11.52.59.28.54.21 1.3.5.61.22 1.25.29 2.02.42.61.1.71.07 1.24.11 2.56.17.77-4.01.77-4.01l-1.2-2.87-2.04-.46-3.32.45-1.24.96-.72 1.46-.06.91zm-5.94-53.02c-7.96 0-14.41 7.61-14.41 16.99 0 9.39 6.45 17 14.41 17s14.41-7.61 14.41-17c0-9.38-6.45-16.99-14.41-16.99zm-.54 21.87c-.16.04-.35.06-.51.09h-5.64v-9.59h5.64c.17.02.4.07.56.12 1.97.66 3.5 2.43 3.5 4.67-.01 2.25-1.51 4.19-3.55 4.71z"/><path class="st5" d="M307.62 179.38c0-1.46.04-2.93-.01-4.39-.03-.97.34-1.35 1.31-1.38 2.29-.09 2.38-.04 2.38 2.19 0 3.22.03 6.44-.03 9.66-.01.58-.29 1.56-.61 1.64-.96.23-2.12.55-2.89-.5-1.19-1.62-2.32-3.28-3.48-4.91-.09-.13-.2-.25-.57-.72 0 1.78.01 3.18 0 4.58-.01 1.59-.21 1.68-2.08 1.76-1.29.05-1.6-.5-1.58-1.67.06-3.4-.01-6.8.05-10.2.01-.58.28-1.61.56-1.67 1.04-.19 2.26-.57 3.08.56 1.09 1.52 2.14 3.08 3.21 4.62.12.18.26.34.4.51.08-.03.17-.05.26-.08zm-183.74.17c0-1.55.04-3.11-.01-4.66-.03-.94.34-1.25 1.26-1.27 2.38-.07 2.38-.1 2.38 2.31 0 3.13.02 6.26-.02 9.39-.01.66.42 1.6-.78 1.82-1.12.2-2.22.43-3-.74-1.01-1.53-2.05-3.04-3.09-4.55-.17-.24-.38-.45-.78-.93 0 1.89-.06 3.48.02 5.06.06 1.29-.72 1.34-1.64 1.31-.92-.03-1.97.21-1.96-1.29.02-3.71-.01-7.42.04-11.14.01-.4.35-1.11.58-1.13 1.06-.09 2.27-.55 3.08.61 1.23 1.75 2.43 3.52 3.64 5.28.09-.02.19-.05.28-.07zm148.78 8.03c-3.93 0-7.18-3.23-7.21-7.15-.02-3.86 3.25-7.17 7.14-7.23 3.92-.06 7.28 3.28 7.27 7.23 0 3.91-3.27 7.15-7.2 7.15zm-.05-3.68c2.06.01 3.58-1.47 3.57-3.51-.01-1.92-1.58-3.52-3.46-3.53-1.93-.01-3.58 1.63-3.58 3.57 0 1.95 1.51 3.46 3.47 3.47zm-210.24-3.55c.01 3.98-3.13 7.21-7.05 7.24-4.02.03-7.23-3.17-7.22-7.21 0-3.89 3.14-7.14 6.87-7.12 4.3.03 7.39 2.99 7.4 7.09zm-7.07 3.54c1.96-.02 3.46-1.52 3.46-3.48 0-1.91-1.57-3.52-3.45-3.54-1.92-.02-3.65 1.66-3.65 3.54 0 1.9 1.66 3.49 3.64 3.48zm93.29-3.52c0-1.79.04-3.58-.02-5.36-.03-1.05.39-1.45 1.42-1.41 1.34.05 2.68-.01 4.02.04 3.63.13 6.4 3.16 6.36 6.91-.04 3.65-2.87 6.53-6.5 6.62-1.33.03-2.67.07-4 .11-.89.03-1.3-.37-1.29-1.29.03-1.87.01-3.74.01-5.62zm3.69 3.18c.49.02.75.05 1.02.05 2.1.01 3.43-1.25 3.4-3.24-.02-1.92-1.51-3.28-3.52-3.15-.31.02-.85.42-.86.66-.07 1.85-.04 3.72-.04 5.68zm-56.83-5.61c-.12 1.51-.08 3.05-.38 4.53-.64 3.16-3.28 5.2-6.32 5.11-3.01-.09-5.59-2.35-5.94-5.54-.26-2.43-.16-4.91-.2-7.36-.01-.69.35-1.07 1.08-1.04.49.02.98.01 1.48-.01.8-.02 1.1.37 1.09 1.16-.03 1.79-.01 3.58-.01 5.37 0 .31-.01.63.01.94.13 1.71 1.31 2.96 2.73 2.93 1.46-.04 2.61-1.3 2.65-2.99.04-1.97.1-3.94-.01-5.9-.09-1.68.99-1.47 2.02-1.51 1.07-.04 1.87.12 1.72 1.51-.1.93-.02 1.88-.02 2.82.03-.02.06-.02.1-.02zm94.07 9.35c-.9.11-1.62-.22-1.8-1.34-.14-.88-.69-1.15-1.53-1.04-.4.05-.81.05-1.2 0-1.08-.15-1.72.2-2.02 1.35-.26 1-3.02 1.52-3.64.72-.19-.24-.15-.78-.03-1.12 1.3-3.79 2.62-7.57 4-11.32.14-.38.73-.79 1.15-.85 2.63-.36 2.74-.24 3.61 2.29 1.04 3.03 2.11 6.05 3.18 9.07.73 2.06.6 2.25-1.72 2.24zm-3.03-5.63c-.36-1.03-.66-1.89-.96-2.76-.09.01-.19.03-.28.04-.26.87-.52 1.75-.81 2.72h2.05zm-163.39.39c0 1.42-.04 2.67.01 3.91.06 1.51-1.07 1.3-1.93 1.31-.84 0-1.8.08-1.77-1.33.06-3.67.04-7.34.01-11-.01-.9.3-1.32 1.23-1.31 2.33.02 4.65.02 6.98-.01.97-.01 1.19.47 1.19 1.33 0 2.23.03 2.23-2.16 2.23h-3.45c-.04.55-.07.97-.12 1.59 1.16 0 2.22.02 3.27-.01.72-.02 1.18.27 1.05 1.01-.14.8.67 2.07-.87 2.25-1.1.13-2.22.03-3.44.03zm190.19-4.88c-.85 0-1.6-.01-2.35 0s-1.19-.25-1.13-1.1c.04-.49-.12-1.03.05-1.46.15-.39.59-.94.92-.95 2.94-.07 5.89-.07 8.83 0 .34.01.91.55.97.91.38 2.29.08 2.6-2.28 2.61h-1.27v3.1c0 1.83-.08 3.66.03 5.49.09 1.54-.9 1.48-1.88 1.49-1.03.02-1.91-.09-1.85-1.56.1-2.32.03-4.64.02-6.96 0-.46-.04-.93-.06-1.57zm31.66 3.23c0 1.83-.05 3.66.02 5.49.05 1.46-.96 1.38-1.87 1.37-.9-.01-1.88.1-1.85-1.38.07-3.61.07-7.23-.01-10.84-.04-1.58.95-1.4 1.94-1.43 1.01-.02 1.87 0 1.8 1.44-.09 1.78-.02 3.57-.03 5.35.01 0 .01 0 0 0z"/></g></svg>