<svg width="39" height="27" xmlns="http://www.w3.org/2000/svg" xmlns:xlink="http://www.w3.org/1999/xlink"><defs><path id="a" d="M0 0h39v27H0z"/></defs><g fill="none" fill-rule="evenodd"><mask id="b" fill="#fff"><use xlink:href="#a"/></mask><path d="M15.613 19.281V7.72l10.151 5.78-10.151 5.781zM38.196 4.225a4.859 4.859 0 00-3.437-3.4C31.707 0 19.5 0 19.5 0S7.293 0 4.24.794c-1.638.445-2.987 1.78-3.437 3.43C0 7.243 0 13.5 0 13.5s0 6.29.803 9.275a4.86 4.86 0 003.438 3.4C7.324 27 19.5 27 19.5 27s12.206 0 15.258-.794a4.86 4.86 0 003.438-3.399C39 19.789 39 13.532 39 13.532s.032-6.29-.804-9.307z" fill="#68B04E" mask="url(#b)"/></g></svg>